HIERARCHY
ROOT Hips
{
 OFFSET 0.000000 0.000000 0.000000
 CHANNELS 6 Xposition Yposition Zposition Yrotation Xrotation Zrotation
 JOINT Chest
 {
  OFFSET 0.000000 9.581000 -0.001100
  CHANNELS 3 Yrotation Xrotation Zrotation
  JOINT Chest2
  {
   OFFSET 0.000000 9.561100 0.002200
   CHANNELS 3 Yrotation Xrotation Zrotation
   JOINT Chest3
   {
    OFFSET 0.000000 9.521100 0.000000
    CHANNELS 3 Yrotation Xrotation Zrotation
    JOINT Chest4
    {
     OFFSET 0.000000 9.511400 0.000000
     CHANNELS 3 Yrotation Xrotation Zrotation
     JOINT Neck
     {
      OFFSET 0.000000 14.375100 0.000000
      CHANNELS 3 Yrotation Xrotation Zrotation
      JOINT Head
      {
       OFFSET 0.000000 8.901200 0.004600
       CHANNELS 3 Yrotation Xrotation Zrotation
       End Site
       {
        OFFSET 0.000000 16.962200 0.002400
       }
      }
     }
     JOINT RightCollar
     {
      OFFSET -2.920100 9.518800 0.000000
      CHANNELS 3 Yrotation Xrotation Zrotation
      JOINT RightShoulder
      {
       OFFSET -13.664500 0.000000 0.000000
       CHANNELS 3 Yrotation Xrotation Zrotation
       JOINT RightElbow
       {
        OFFSET 0.000000 -29.999200 0.000000
        CHANNELS 3 Yrotation Xrotation Zrotation
        JOINT RightWrist
        {
         OFFSET 0.000000 -24.253600 0.000000
         CHANNELS 3 Yrotation Xrotation Zrotation
         End Site
         {
          OFFSET 0.000000 -17.918900 0.000000
         }
        }
       }
      }
     }
     JOINT LeftCollar
     {
      OFFSET 2.920100 9.518800 0.000000
      CHANNELS 3 Yrotation Xrotation Zrotation
      JOINT LeftShoulder
      {
       OFFSET 13.664500 0.000000 0.000000
       CHANNELS 3 Yrotation Xrotation Zrotation
       JOINT LeftElbow
       {
        OFFSET 0.000000 -29.999200 0.000000
        CHANNELS 3 Yrotation Xrotation Zrotation
        JOINT LeftWrist
        {
         OFFSET 0.000000 -24.253600 0.000000
         CHANNELS 3 Yrotation Xrotation Zrotation
         End Site
         {
          OFFSET 0.000000 -17.918900 0.000000
         }
        }
       }
      }
     }
    }
   }
  }
 }
 JOINT RightHip
 {
  OFFSET -7.797300 0.005300 0.000500
  CHANNELS 3 Yrotation Xrotation Zrotation
  JOINT RightKnee
  {
   OFFSET 0.000000 -40.663400 -0.000500
   CHANNELS 3 Yrotation Xrotation Zrotation
   JOINT RightAnkle
   {
    OFFSET 0.000000 -39.523700 -0.000900
    CHANNELS 3 Yrotation Xrotation Zrotation
    JOINT RightToe
    {
     OFFSET 0.000000 -6.418000 14.485300
     CHANNELS 3 Yrotation Xrotation Zrotation
     End Site
     {
      OFFSET 0.000000 -1.465200 6.326400
     }
    }
   }
  }
 }
 JOINT LeftHip
 {
  OFFSET 7.797300 0.005300 0.000500
  CHANNELS 3 Yrotation Xrotation Zrotation
  JOINT LeftKnee
  {
   OFFSET 0.000000 -40.663400 -0.000500
   CHANNELS 3 Yrotation Xrotation Zrotation
   JOINT LeftAnkle
   {
    OFFSET 0.000000 -39.523700 -0.000900
    CHANNELS 3 Yrotation Xrotation Zrotation
    JOINT LeftToe
    {
     OFFSET 0.000000 -6.418000 14.485300
     CHANNELS 3 Yrotation Xrotation Zrotation
     End Site
     {
      OFFSET 0.000000 -1.465200 6.326400
     }
    }
   }
  }
 }
}
MOTION
Frames: 11
Frame Time: 0.008333
-14.977476 126.911653 20.826197 -172.061253 -48.253635 -2.512724 -3.183969 26.115062 1.091539 -0.522323 4.378246 0.280300 -0.903776 6.921300 0.427533 -2.613817 21.432865 0.998083 6.838253 16.787555 -5.506277 8.847430 -7.607961 -7.688901 2.434230 5.222235 2.648926 -28.486550 -16.737178 -4.566191 -138.596841 -50.175238 164.088673 -6.680488 -9.597742 -4.811659 -8.949368 2.033055 -1.392087 29.257632 -14.491502 1.790478 127.352807 -54.949819 -144.377620 6.181607 -28.246374 4.746778 -4.038417 -24.200803 -1.866469 -2.365120 77.432030 -0.756247 10.156401 -8.910037 1.280600 -0.002254 -0.000399 -0.000999 7.537528 4.671935 2.944945 129.221013 65.537579 149.354704 4.375230 12.761473 5.065550 0.003085 -0.004952 0.001367
-14.977470 126.911925 20.825535 -172.067064 -48.252151 -2.521426 -3.200707 26.102317 1.091781 -0.556826 4.358658 0.280030 -0.877122 6.931232 0.426130 -2.629454 21.424302 0.998548 7.039711 16.771946 -5.492458 9.077351 -7.610506 -7.729915 2.433834 5.243475 2.654132 -28.275349 -16.778541 -4.681621 -137.317844 -50.229998 163.508251 -6.891553 -9.219517 -4.339331 -8.921179 2.027563 -1.409910 28.915866 -14.485566 1.821624 125.016678 -54.599488 -143.232939 7.059748 -27.723911 3.799014 -4.046578 -24.183369 -1.857126 -2.395836 77.418682 -0.764088 10.175771 -8.947024 1.229837 0.000523 -0.003129 0.000232 7.539162 4.663344 2.951873 129.227138 65.537664 149.361282 4.379271 12.783810 5.050013 0.002550 -0.005100 0.001130
-14.977670 126.912118 20.824676 -172.071366 -48.247975 -2.529969 -3.214057 26.088115 1.092553 -0.559340 4.353740 0.279907 -0.875391 6.929996 0.426791 -2.649910 21.407807 0.996997 7.239145 16.759512 -5.464493 9.301642 -7.610405 -7.754201 2.450152 5.272121 2.650637 -28.068951 -16.802964 -4.798407 -136.039025 -50.269487 162.946439 -7.061201 -8.916764 -3.898751 -8.903225 2.019584 -1.434451 28.547955 -14.486054 1.872554 122.805966 -54.240472 -142.175018 7.806739 -27.261450 2.954544 -4.055154 -24.169263 -1.842298 -2.409490 77.405151 -0.775184 10.199780 -8.987505 1.200890 0.000901 -0.005672 0.000399 7.541687 4.655496 2.959916 129.239059 65.538991 149.376140 4.376044 12.803179 5.049908 0.004733 -0.000911 0.002097
-14.978470 126.912076 20.823786 -172.072654 -48.239847 -2.536963 -3.219499 26.075561 1.095943 -0.560471 4.351040 0.279711 -0.871467 6.932047 0.427378 -2.677563 21.377119 0.995650 7.432018 16.751811 -5.425282 9.515637 -7.606171 -7.763720 2.462835 5.302592 2.648120 -27.843456 -16.810193 -4.931787 -134.808220 -50.293365 162.426604 -7.194377 -8.671500 -3.511089 -8.887548 2.005672 -1.458603 28.152306 -14.494801 1.934047 120.708061 -53.860099 -141.185863 8.359051 -26.817028 2.165140 -4.070194 -24.156435 -1.829136 -2.419215 77.390597 -0.787595 10.213407 -9.034823 1.179550 0.001111 -0.005079 0.000492 7.536050 4.642913 2.956114 129.247464 65.532051 149.379615 4.380066 12.813217 5.048443 0.003236 -0.000369 0.001434
-14.979387 126.912566 20.822142 -172.069769 -48.233636 -2.546693 -3.227572 26.065142 1.098423 -0.561511 4.348166 0.279480 -0.884840 6.915515 0.425226 -2.675706 21.373027 0.995471 7.609480 16.738207 -5.376958 9.716254 -7.597412 -7.761023 2.448548 5.322126 2.648031 -27.578516 -16.800561 -5.086746 -133.639134 -50.305288 161.949980 -7.292706 -8.469290 -3.175725 -8.877033 1.917694 -1.486233 27.732966 -14.465510 2.035523 118.728001 -53.463102 -140.274261 8.731398 -26.357890 1.378404 -4.099268 -24.144471 -1.813453 -2.490384 77.385222 -0.869307 10.236867 -9.073856 1.165319 0.002513 0.000789 0.001113 7.530304 4.632739 2.950594 129.257334 65.527098 149.388100 4.388641 12.821307 5.045259 0.002384 -0.003221 0.001056
-14.979616 126.912328 20.820808 -172.070961 -48.219267 -2.556840 -3.252923 26.029481 1.089934 -0.549550 4.353519 0.283020 -0.886312 6.906203 0.425386 -2.664407 21.389995 0.994977 7.765792 16.705970 -5.321343 9.901610 -7.584522 -7.747408 2.397488 5.295986 2.653406 -27.260317 -16.757882 -5.277105 -132.533053 -50.309233 161.511147 -7.364941 -8.292343 -2.882964 -8.862167 1.867236 -1.496743 27.300456 -14.493847 2.101153 116.903939 -53.069049 -139.465552 8.993294 -25.872656 0.548828 -4.115151 -24.140854 -1.793825 -2.568273 77.381067 -0.954329 10.240559 -9.140997 1.171093 0.001265 -0.001525 0.000560 7.524041 4.616474 2.944671 129.281416 65.518329 149.420323 4.386204 12.824452 5.031939 0.008417 -0.001961 0.003729
-14.980905 126.912801 20.818640 -172.072617 -48.208588 -2.560585 -3.256675 26.013453 1.090813 -0.568361 4.321357 0.276693 -0.877402 6.915299 0.429431 -2.674582 21.376408 0.992933 7.929353 16.708519 -5.265610 10.068181 -7.568196 -7.723493 2.402418 5.321583 2.650007 -26.955509 -16.722274 -5.464859 -131.495503 -50.312104 161.109946 -7.422548 -8.134205 -2.623320 -8.821658 1.846607 -1.519550 26.852951 -14.527398 2.166738 115.278030 -52.706820 -138.782336 9.220083 -25.362651 -0.341937 -4.121797 -24.137022 -1.784786 -2.632683 77.382328 -1.025776 10.242701 -9.209479 1.191468 0.000490 -0.005185 0.000217 7.517840 4.606265 2.932553 129.286277 65.509977 149.426129 4.379390 12.830324 5.057377 0.011583 -0.003352 0.005132
-14.982180 126.913691 20.815820 -172.078806 -48.199325 -2.560940 -3.257222 25.998852 1.090687 -0.566472 4.317542 0.277256 -0.886147 6.892450 0.426984 -2.677863 21.360253 0.994705 8.073531 16.718517 -5.206476 10.214205 -7.550442 -7.691211 2.367610 5.297860 2.638000 -26.586998 -16.624480 -5.678225 -130.527587 -50.318552 160.748158 -7.475011 -7.992994 -2.395549 -8.782650 1.828156 -1.545875 26.384480 -14.563275 2.234370 113.857332 -52.405902 -138.229060 9.465149 -24.826523 -1.280106 -4.123849 -24.135397 -1.782849 -2.626277 77.385963 -1.027986 10.257710 -9.265781 1.215130 0.001372 -0.007473 0.000608 7.508548 4.607639 2.911596 129.271818 65.500929 149.404666 4.385889 12.829943 5.065352 0.007242 -0.003388 0.003209
-14.982751 126.913984 20.813244 -172.075156 -48.182790 -2.571849 -3.261212 25.967782 1.091138 -0.564093 4.323795 0.282357 -0.888958 6.870399 0.425265 -2.680996 21.343354 0.996136 8.196971 16.728403 -5.144989 10.339286 -7.532105 -7.651710 2.360777 5.326731 2.632880 -26.229363 -16.567864 -5.866431 -129.620300 -50.330438 160.423559 -7.530781 -7.868311 -2.210085 -8.745907 1.805344 -1.574738 25.889664 -14.603250 2.305693 112.611831 -52.180844 -137.783188 9.737869 -24.274682 -2.226456 -4.131940 -24.144142 -1.778414 -2.707245 77.399093 -1.114362 10.291060 -9.310640 1.230042 0.000826 -0.005226 0.000366 7.501590 4.595162 2.909646 129.283351 65.498403 149.418384 4.387779 12.828679 5.060125 0.010029 -0.005245 0.004443
-14.983826 126.914209 20.810559 -172.061851 -48.163890 -2.586188 -3.266596 25.939884 1.093129 -0.566561 4.317027 0.282977 -0.889594 6.856717 0.425018 -2.686190 21.271617 0.995673 8.308697 16.791466 -5.072190 10.444059 -7.511830 -7.606013 2.351605 5.409191 2.633185 -25.845235 -16.506606 -6.050346 -128.748000 -50.346735 160.122905 -7.589359 -7.766781 -2.079008 -8.706006 1.831870 -1.611182 25.365566 -14.646699 2.384643 111.495629 -52.021626 -137.413755 10.009987 -23.725522 -3.132714 -4.125642 -24.152172 -1.790208 -2.818160 77.412972 -1.210743 10.334503 -9.360781 1.243384 -0.000111 -0.001102 -0.000049 7.487071 4.581741 2.903252 129.295051 65.492972 149.430721 4.388124 12.822787 5.056650 0.012493 -0.006617 0.005535
-14.985452 126.914108 20.808026 -172.052838 -48.141479 -2.593049 -3.270848 25.912092 1.093205 -0.561781 4.286878 0.278870 -0.888568 6.825846 0.425502 -2.691881 21.311574 0.999731 8.399137 16.783405 -5.010768 10.530157 -7.488769 -7.556773 2.324562 5.388639 2.626387 -25.428213 -16.418098 -6.241666 -127.879060 -50.358309 159.823153 -7.646982 -7.689395 -1.989440 -8.665942 1.777354 -1.636760 24.813414 -14.691430 2.475248 110.455148 -51.896086 -137.092056 10.240695 -23.192041 -3.975573 -4.112385 -24.156038 -1.796995 -2.928248 77.423487 -1.303908 10.317238 -9.453270 1.278167 -0.002608 -0.002147 -0.001155 7.473561 4.569661 2.888973 129.289026 65.486778 149.421177 4.391639 12.817012 5.058778 0.012035 -0.007306 0.005332
